<svg xmlns:svg="http://www.w3.org/2000/svg" xmlns="http://www.w3.org/2000/svg" width="100%" height="100%" viewBox="0 0 807.3 267.1" version="1.1"><g transform="translate(0,-477.00451)"><path d="m10 623 0-82.5 11.2 0 0 81.8c0 17.7 2.8 30.2 8.5 37.5 5.7 7.2 14.1 10.9 25.1 10.9 12.9 0 24-3.9 33.2-11.7 9.3-7.9 13.9-21.6 13.9-41.1l0-77.3 11.2 0 0 136.7-11.2 0 0-25.6c-4 8.3-9.2 14.6-15.7 19-9.6 6.6-20.2 9.9-31.9 9.9-13.5 0-24.3-4.6-32.3-13.8-8.1-9.1-12.1-23.7-12.1-43.7z" class="s0"/><path d="m234.3 594.4 0 82.5-11.2 0 0-81.8c0-17.7-2.8-30.2-8.5-37.5-5.7-7.2-14.1-10.9-25.1-10.9-12.9 0-24 3.9-33.2 11.7-9.3 7.9-13.9 21.6-13.9 41.1l0 77.3-11.2 0 0-136.7 11.2 0 0 25.6c4-8.3 9.2-14.6 15.7-19 9.6-6.6 20.2-9.9 31.9-9.9 13.5 0 24.3 4.6 32.3 13.8 8.1 9.1 12.1 23.7 12.1 43.7z" class="s0"/><path d="m252 540.2 11.2 0 0 136.7-11.2 0zm0-53.2 11.2 0 0 15.4-11.2 0z" class="s0"/><path d="m306.9 557.8c-9.4 9.5-14.2 25.4-14.2 47.6 0 22.2 4.7 38.1 14.2 47.6 9.4 9.5 19.2 14.3 29.7 14.3 10.2 0 20-4.8 29.4-14.3 9.4-9.5 14-25.4 14-47.6 0-22.2-4.7-38.1-14-47.6-9.4-9.5-19.2-14.3-29.4-14.3-10.4 0-20.3 4.8-29.7 14.3zm73.2 84.8c-5.1 11.9-10.7 20-16.7 24.4-9.2 6.8-17.9 10.1-26 10.1-16.2 0-29.7-6.6-40.4-19.8-10.7-13.2-16.1-30.5-16.1-52 0-21.5 5.4-38.8 16.1-52 10.7-13.2 24.2-19.8 40.4-19.8 8.1 0 16.8 3.4 26 10.1 6 4.4 11.6 12.5 16.7 24.4l0-31.3 11 0 0 188.7-11 0z" style="inkscape-font-specification:'DejaVu Sans Light, Ultra-Light';fill:#d40000;font-family:DejaVu Sans Light;font-size:250;font-weight:200;line-height:125;text-align:start;text-anchor:start;writing-mode:lr-tb"/><path d="m495.8 540.7 0 12.3c-7.9-4.4-12.8-6.8-14.8-7.3-5.7-1.4-12.8-2.2-21.2-2.4-12.9 0-22.9 2.6-30.3 7.7-5.6 4.2-8.4 11.5-8.4 21.7 0 6.9 2.6 12.3 7.9 16.2 5.6 4.2 13.6 7.5 24 9.8l7.7 1.7c12.9 2.8 22.7 6.9 29.4 12.1 7.7 5.9 11.8 13.7 12.2 23.2 0 12.9-3.8 23.1-11.5 30.4-8.1 7.2-21.2 10.9-39.3 10.9-10.1 0-17.7-0.7-22.9-2.1-6.3-1.8-12.9-3.9-19.8-6.5l0-14c9.9 5.7 16.4 9 19.3 9.8 8.1 2.1 16 3.2 23.9 3.2 13.2 0 22.9-2.7 29.2-8.2 6.3-5.5 9.5-12.8 9.5-21.7 0-7.5-2.1-12.9-6.3-16.4-6.1-4.9-15.8-8.9-29.2-12l-7.8-1.8c-11.5-2.7-20.2-6.5-26.2-11.4-7.6-6.1-11.4-13.5-11.4-22.2 0-14.3 4.6-24.6 13.7-30.9 9.1-6.3 20.3-9.4 33.6-9.4 11.3 0 19.1 0.6 23.4 1.8 5.2 1.5 10.3 3.3 15.3 5.5zM609.9 559.5c-8.1-11.2-19-16.8-33-16.8-13.9 0-24.9 5.6-33 16.7-8.1 11.1-12.2 26-12.2 44.9 0 19.4 4 34.6 12.1 45.7 8.1 11.1 19.1 16.7 33.1 16.7 13.9 0 24.9-5.6 33-16.7 8.1-11.2 12.2-26.4 12.2-45.7 0-18.6-4.1-33.6-12.2-44.8zm-33.1-26.7c17.4 0 31.2 6.5 41.3 19.5 10.2 13.1 15.3 30.5 15.3 52.1 0 22.4-5.1 40-15.3 53-10.1 13-23.8 19.5-41.3 19.5-17.6 0-31.5-6.5-41.6-19.4-10.1-12.9-15.1-30.6-15.1-53.1 0-21.9 5.1-39.3 15.3-52.2 10.2-12.9 24-19.4 41.5-19.4zM716.3 487l0 9.5-15.9 0c-8.3 0-14.6 2.2-19 6.5-5.4 5.3-8.1 13.7-8.1 25.1l0 12.1 36.9 0 0 9.5-36.9 0 0 127.2-11.4 0 0-127.2-21.5 0 0-9.5 21.5 0 0-9.5c0-15.2 3.5-26.3 10.4-33.2 6.8-7 16.3-10.5 28.3-10.5zM751.1 501.4l0 38.8 46.3 0 0 9.5-46.3 0 0 82.2c0 10.4 1.3 17.7 4 21.9 5.5 9.1 13.6 13.7 24.2 13.7l18.1 0 0 9.5-17.5 0c-11.1 0-20.6-3.3-28.4-9.8-7.8-6.5-11.7-18.3-11.7-35.3l0-82.2-16.4 0 0-9.5 16.4 0 0-38.8z" class="s0"/><path d="m43.7 698.3 0.4 0.3c-0.1 1-0.2 2.4-0.2 4.1 1.2-1 2.4-2.1 3.6-3.1 0.3-0.3 0.6-0.5 0.9-0.7 0.3-0.1 0.8-0.3 1.4-0.4 0.7-0.2 1.4-0.2 2.1-0.2 1.2 0 2.3 0.2 3.5 0.7 1.1 0.5 2 1.1 2.5 1.7 0.6 0.7 1 1.4 1.2 2.4 0.2 0.9 0.3 2 0.3 3.4l0 4.1c0 0.3 0 2.2 0.1 5.8 0 1.5 0.2 2.4 0.5 2.6 0.3 0.3 1.3 0.4 2.9 0.4l0.2 0.2 0 1-0.2 0.2c-2-0.1-3.3-0.2-4-0.2-0.4 0-1.5 0.1-3.4 0.2l-0.3-0.3c0.2-2 0.3-4.7 0.3-7.9l0-3.1c0-1.8 0-3.2-0.1-4-0.1-0.8-0.3-1.6-0.8-2.2-0.4-0.7-1-1.2-1.8-1.5-0.7-0.4-1.6-0.6-2.6-0.6-0.8 0-1.5 0.1-2.1 0.2-0.6 0.2-1.2 0.5-1.9 1-0.7 0.5-1.3 1-1.6 1.4-0.3 0.4-0.6 0.9-0.6 1.2-0.1 0.4-0.1 1.2-0.1 2.4l0 4.1c0 0.3 0 1.4 0.1 3.3 0.1 1.9 0.1 3 0.2 3.3 0.1 0.3 0.2 0.5 0.3 0.7 0.1 0.1 0.3 0.2 0.5 0.3 0.2 0 1 0.1 2.5 0.2l0.2 0.2 0 1-0.2 0.2c-2-0.1-3.8-0.2-5.6-0.2-1.8 0-3.7 0.1-5.6 0.2l-0.2-0.2 0-1 0.2-0.2c1.5-0.1 2.4-0.2 2.6-0.2 0.2 0 0.4-0.1 0.5-0.3 0.1-0.1 0.3-0.4 0.3-0.7 0.1-0.3 0.1-1.3 0.2-3 0.1-1.7 0.1-3 0.1-3.9l0-4.6c0-0.6 0-1.5-0.1-2.6-0.1-1.1-0.1-1.7-0.2-2 0-0.2-0.2-0.4-0.4-0.6-0.2-0.1-0.6-0.2-1.2-0.2l-2 0-0.2-0.2 0-1 0.2-0.2c3-0.4 5.5-0.9 7.5-1.8zM70.4 687.8c0.7 0 1.4 0.3 1.9 0.8 0.5 0.5 0.8 1.1 0.8 1.9 0 0.7-0.3 1.3-0.8 1.9-0.5 0.5-1.1 0.8-1.9 0.8-0.7 0-1.3-0.3-1.9-0.8-0.5-0.5-0.8-1.1-0.8-1.9 0-0.7 0.3-1.4 0.8-1.9 0.5-0.5 1.1-0.8 1.9-0.8zm2 10.5 0.4 0.3c-0.2 2-0.3 4.6-0.3 7.8l0 5.3c0 0.3 0 1.4 0.1 3.3 0.1 1.9 0.1 3 0.2 3.3 0.1 0.3 0.2 0.5 0.3 0.7 0.1 0.1 0.3 0.2 0.5 0.3 0.2 0 1 0.1 2.5 0.2l0.2 0.2 0 1-0.2 0.2c-2-0.1-3.8-0.2-5.6-0.2-1.8 0-3.7 0.1-5.6 0.2l-0.2-0.2 0-1 0.2-0.2c1.5-0.1 2.4-0.2 2.6-0.2 0.2 0 0.4-0.1 0.5-0.3 0.1-0.1 0.2-0.4 0.3-0.7 0.1-0.3 0.1-1.3 0.2-3 0.1-1.7 0.1-3 0.1-3.9l0-4.6c0-0.6 0-1.5-0.1-2.6-0.1-1.1-0.1-1.7-0.2-2 0-0.2-0.2-0.4-0.4-0.6-0.2-0.1-0.6-0.2-1.2-0.2l-2 0-0.2-0.2 0-1 0.2-0.2c3-0.4 5.5-0.9 7.5-1.8zM98.3 717.1l-0.7 1.7c-1.6 1-3.1 1.7-4.3 2-1.3 0.3-2.4 0.5-3.4 0.5-1.9 0-3.7-0.4-5.3-1.1-1.7-0.7-3-2-4.1-3.7-1.1-1.7-1.6-3.9-1.6-6.3 0-1.6 0.2-3.1 0.6-4.4 0.4-1.3 0.8-2.3 1.3-2.9 0.4-0.6 1.2-1.4 2.3-2.1 1.1-0.8 2.2-1.4 3.4-1.9 1.2-0.5 2.5-0.7 3.8-0.7 1.9 0 3.5 0.4 5 1.3 1.4 0.9 2.4 2 3 3.4 0.6 1.4 0.9 2.8 0.9 4.4 0 0.5 0 1-0.1 1.4l-0.3 0.3c-1.1 0.2-2.5 0.4-4.3 0.5-1.8 0.1-3 0.1-3.6 0.1l-7.5 0c0 3.2 0.8 5.6 2.4 7.1 1.6 1.5 3.5 2.3 5.9 2.3 1.1 0 2.1-0.2 3.2-0.6 1-0.4 2.1-0.9 3.2-1.6zm-15-9.6c0.3 0 1.4 0.1 3.2 0.2 1.9 0.1 3.3 0.1 4.2 0.1 2.2 0 3.5 0 4-0.1 0-0.4 0-0.7 0-0.9 0-2.4-0.5-4.2-1.5-5.4-1-1.2-2.3-1.8-4-1.8-1.9 0-3.3 0.7-4.3 2-1 1.3-1.6 3.3-1.6 5.9zM109.3 698l0.4 0.3c-0.2 1.8-0.2 3.4-0.3 4.7 2.1-1.9 3.6-3.2 4.4-3.8 0.8-0.6 2.3-0.9 4.3-0.9 1.3 0 2.4 0.2 3.5 0.5 1 0.4 2 0.9 2.9 1.7 0.9 0.8 1.6 1.8 2.1 3 0.5 1.2 0.8 2.6 0.8 4.2 0 1.1-0.2 2.3-0.5 3.4-0.4 1.2-0.8 2.2-1.4 3.2-0.6 1-1.1 1.6-1.4 2-0.4 0.3-1.1 0.8-2.2 1.4-1 0.6-2 1.2-2.9 1.9-0.7 0.5-1.1 0.8-1.4 0.9-0.3 0.1-0.7 0.3-1.3 0.4-0.6 0.1-1.3 0.2-2 0.2-1.6 0-3.2-0.4-4.9-1.2l0 5c0 0.3 0 1.4 0.1 3.3 0.1 1.9 0.1 3 0.2 3.3 0.1 0.3 0.2 0.5 0.3 0.7 0.1 0.1 0.3 0.2 0.5 0.3 0.2 0 1 0.1 2.5 0.2l0.2 0.2 0 1-0.2 0.2c-2-0.1-3.8-0.2-5.6-0.2-1.8 0-3.7 0.1-5.6 0.2l-0.2-0.2 0-1 0.2-0.2c1.5-0.1 2.4-0.2 2.6-0.2 0.2 0 0.4-0.1 0.5-0.3 0.1-0.1 0.3-0.4 0.3-0.7 0.1-0.3 0.1-1.4 0.2-3.1 0.1-1.8 0.1-3.1 0.1-4l0-18c0-0.8 0-1.8-0.1-2.8-0.1-1.1-0.1-1.7-0.2-1.9 0-0.2-0.2-0.3-0.3-0.4-0.2-0.1-0.6-0.2-1.2-0.2l-2 0-0.2-0.2 0-1 0.2-0.2c3-0.4 5.5-0.9 7.5-1.8zm0.2 18c0.7 0.7 1.6 1.4 2.7 1.9 1.1 0.5 2.2 0.8 3.5 0.8 1.5 0 2.9-0.4 4-1.1 1.2-0.8 2.1-1.9 2.7-3.4 0.6-1.5 1-3.1 1-4.9 0-1.5-0.3-2.8-0.9-4.1-0.6-1.2-1.5-2.2-2.6-3-1.2-0.7-2.5-1.1-3.8-1.1-0.8 0-1.6 0.1-2.4 0.4-0.8 0.3-1.5 0.7-2.2 1.3-0.7 0.6-1.2 1.1-1.5 1.6-0.3 0.5-0.5 0.9-0.5 1.3 0 0.3 0 0.7 0 1.1zM131.1 709.9c0-1.9 0.4-3.7 1.1-5.4 0.8-1.7 2.1-3.2 4-4.5 1.9-1.3 4.2-1.9 6.8-1.9 3.3 0 6 1 8 3.1 2.1 2.1 3.1 4.7 3.1 8 0 3.6-1.2 6.5-3.6 8.8-2.4 2.3-5.2 3.5-8.6 3.5-2.2 0-4.1-0.6-5.9-1.8-1.7-1.2-3-2.6-3.8-4.3-0.8-1.7-1.2-3.6-1.2-5.6zm4.4-1.6c0 2.2 0.3 4.1 0.8 5.9 0.6 1.7 1.5 3.1 2.7 4.2 1.2 1 2.6 1.6 4.2 1.6 1.8 0 3.4-0.7 4.6-2.2 1.2-1.5 1.8-3.7 1.8-6.6 0-3.3-0.7-6.1-2-8.2-1.3-2.1-3.2-3.2-5.6-3.2-2 0-3.6 0.7-4.8 2.2-1.1 1.5-1.7 3.6-1.7 6.4zM165.8 721l-3.2-10.5c-0.6-2-1.2-3.8-1.7-5.5-0.6-1.7-0.9-2.8-1.1-3.2-0.2-0.5-0.4-0.8-0.6-1-0.2-0.2-0.4-0.3-0.7-0.4-0.2-0.1-0.9-0.2-2-0.3l-0.2-0.2 0-1 0.2-0.2c1.1 0.1 2.9 0.2 5.2 0.2 2.5 0 4.5-0.1 5.7-0.2l0.2 0.2 0 1-0.2 0.2c-1.7 0-2.7 0.1-3 0.3-0.3 0.2-0.5 0.4-0.5 0.8 0 0.4 0.2 1.3 0.7 2.9l2.2 7.5c0.3 1.2 0.8 2.5 1.3 4.1 0.4-1 1-2.4 1.8-4.1l3.4-7.7c0.8-1.8 1.6-3.7 2.3-5.5l1.1 0 2.1 5.7 2.7 6.8 2.1 5.2 1.8-4.6c1-2.6 1.8-4.8 2.4-6.6 0.6-1.8 0.8-2.9 0.8-3.4 0-0.5-0.2-0.8-0.5-1-0.3-0.2-1.3-0.3-2.8-0.3l-0.2-0.2 0-1 0.2-0.2c1.8 0.1 3.3 0.2 4.6 0.2 1.6 0 3-0.1 4.4-0.2l0.2 0.2 0 1-0.2 0.2c-0.8 0-1.4 0.1-1.7 0.3-0.3 0.2-0.6 0.5-1 1.1-0.4 0.6-1 1.8-1.7 3.7l-2.3 5.5-1.1 2.6-1.7 4.4c-0.5 1.4-0.9 2.5-1.1 3.4l-2.2 0-1.1-2.9-5.3-13.4-2.2 4.9-2.6 5.8-2.3 5.7zM196.8 702.2l0-0.6 0.2-0.2c1.5-0.5 2.7-1.1 3.6-1.5 0-4.1 0-6.5-0.1-7.1 1.6-0.6 2.9-1.2 4-1.8l0.6 0.5c-0.2 1-0.3 3.8-0.6 8.6 0.8 0 1.6 0 2.5 0 1.8 0 3.2 0 4-0.1l0.2 0.2-0.4 2-0.2 0.2c-0.8 0-1.7 0-2.6 0-0.9 0-2 0-3.4 0l-0.1 9.5c0 2.2 0.1 3.6 0.2 4.3 0.1 0.7 0.4 1.2 0.8 1.6 0.5 0.4 1.1 0.6 2.1 0.6 1 0 2-0.3 2.9-0.8l0.6 0.8c-0.4 0.3-1.3 1-2.7 2.3-0.8 0.4-1.6 0.6-2.5 0.6-3.5 0-5.3-1.7-5.3-5.1 0-1.2 0-2.3 0.1-3.2 0-0.3 0-0.5 0-0.8l0-9.7-1 0c-0.7 0-1.5 0-2.4 0.1zM216.4 704.7l-0.9-0.2-0.2-0.2 0-2.9c2.8-2.1 5.5-3.1 8.1-3.1 1.8 0 3.3 0.3 4.5 1 1.2 0.7 2 1.5 2.6 2.5 0.5 1 0.8 2.2 0.8 3.5l-0.1 4.7 0 7c0 1 0.1 1.5 0.2 1.7 0.1 0.2 0.3 0.3 0.5 0.4 0.2 0.1 0.5 0.1 1 0.2l1.3 0.1 0.2 0.2 0 0.9-0.2 0.2c-1.1-0.1-2.2-0.1-3.2-0.1-0.9 0-2.1 0-3.4 0.1l-0.4-0.3 0.1-3.8-5.1 4c-0.9 0.4-1.8 0.5-2.8 0.5-1.3 0-2.3-0.2-3.2-0.7-0.9-0.5-1.6-1.1-2.1-1.9-0.5-0.8-0.7-1.8-0.7-3 0-2.3 0.7-4.1 2.2-5.4 1.4-1.3 5.4-2.4 11.8-3.3 0-2.3-0.5-3.9-1.5-4.9-1-0.9-2.4-1.4-4.1-1.4-0.9 0-1.7 0.1-2.5 0.4-0.7 0.3-1.2 0.5-1.3 0.6-0.1 0.2-0.5 1.1-1.3 2.9zm10.9 3.7c-4.4 0.7-7.1 1.5-8.2 2.4-1.1 0.8-1.6 2.1-1.6 3.9 0 2.4 1.2 3.7 3.6 3.7 2.1 0 4.1-1.2 6.2-3.6zM244.4 698.3l0.4 0.3c-0.1 0.9-0.2 2.5-0.2 4.8l1.8-2.2c0.6-0.7 1.1-1.3 1.5-1.7 0.4-0.4 1-0.7 1.6-0.9 0.6-0.2 1.2-0.3 1.8-0.3 0.7 0 1.3 0.1 1.9 0.4l0.2 0.3c-0.3 2.1-0.4 3.9-0.4 5.5l-1.1 0c-0.6-1.4-1.6-2.2-3-2.2-1 0-1.8 0.3-2.5 0.9-0.7 0.6-1.2 1.4-1.4 2.3-0.2 0.9-0.4 2.1-0.4 3.5l0 2.6c0 0.5 0 1.6 0.1 3.4 0.1 1.8 0.1 2.9 0.2 3.2 0.1 0.3 0.2 0.5 0.3 0.6 0.1 0.1 0.3 0.2 0.6 0.3 0.2 0 1.4 0.1 3.3 0.2l0.2 0.2 0 1-0.2 0.2c-2.1-0.1-4.3-0.2-6.5-0.2-1.8 0-3.7 0.1-5.6 0.2l-0.2-0.2 0-1 0.2-0.2c1.5-0.1 2.4-0.2 2.6-0.2 0.2 0 0.4-0.1 0.5-0.3 0.1-0.1 0.3-0.4 0.3-0.7 0.1-0.3 0.1-1.3 0.2-3 0.1-1.7 0.1-3 0.1-3.9l0-4.6c0-0.6 0-1.5-0.1-2.6-0.1-1.1-0.1-1.7-0.2-2 0-0.2-0.2-0.4-0.4-0.6-0.2-0.1-0.6-0.2-1.2-0.2l-2 0-0.2-0.2 0-1 0.2-0.2c3-0.4 5.5-0.9 7.5-1.8zM255.6 720.8l-0.2-0.2-0.2-0.9c2-2.1 3.9-4.4 5.8-6.7l5.2-6.4c1.6-2 3.1-4 4.5-6.1l-5.5 0c-0.4 0-1.4 0-3 0.1-1.6 0.1-2.5 0.2-2.6 0.4-0.2 0.2-0.4 1.2-0.7 3.1l-0.1 0.8-0.2 0.2-0.9 0-0.2-0.2c0.2-2.5 0.2-3.9 0.2-4.3 0-0.4 0-0.9 0-1.6l0.2-0.2c5.8 0.1 10.4 0.2 13.9 0.2 1.8 0 3.3-0.1 4.4-0.2l0.2 0.2 0 1.1c-1.1 1.2-2.8 3.2-5 6.1l-6.1 7.8c-1.8 2.3-3.1 4-3.8 5l1.6 0 4.7-0.1c1.7 0 3.2-0.1 4.3-0.2 1.2-0.1 1.9-0.2 2.1-0.3 0.2-0.1 0.3-0.2 0.4-0.2 0-0.1 0.2-0.6 0.4-1.5 0.2-0.9 0.4-1.7 0.5-2.5l0.2-0.2 1.1 0 0.2 0.2c-0.4 2.8-0.6 4.9-0.6 6.4l-0.2 0.2c-4.7-0.1-8.2-0.2-10.7-0.2-2.1 0-5.3 0.1-9.6 0.2zM283.3 704.7l-0.9-0.2-0.2-0.2 0-2.9c2.8-2.1 5.5-3.1 8.1-3.1 1.8 0 3.3 0.3 4.5 1 1.2 0.7 2 1.5 2.6 2.5 0.5 1 0.8 2.2 0.8 3.5l-0.1 4.7 0 7c0 1 0.1 1.5 0.2 1.7 0.1 0.2 0.3 0.3 0.5 0.4 0.2 0.1 0.5 0.1 1 0.2l1.3 0.1 0.2 0.2 0 0.9-0.2 0.2c-1.1-0.1-2.2-0.1-3.2-0.1-0.9 0-2.1 0-3.4 0.1l-0.4-0.3 0.1-3.8-5.1 4c-0.9 0.4-1.8 0.5-2.8 0.5-1.3 0-2.3-0.2-3.2-0.7-0.9-0.5-1.6-1.1-2.1-1.9-0.5-0.8-0.7-1.8-0.7-3 0-2.3 0.7-4.1 2.2-5.4 1.4-1.3 5.4-2.4 11.8-3.3 0-2.3-0.5-3.9-1.5-4.9-1-0.9-2.4-1.4-4.1-1.4-0.9 0-1.7 0.1-2.5 0.4-0.7 0.3-1.2 0.5-1.3 0.6-0.1 0.2-0.5 1.1-1.3 2.9zm10.9 3.7c-4.4 0.7-7.1 1.5-8.2 2.4-1.1 0.8-1.6 2.1-1.6 3.9 0 2.4 1.2 3.7 3.6 3.7 2.1 0 4.1-1.2 6.2-3.6zM311.1 685.9l0.4 0.3c-0.2 1.8-0.3 5.4-0.3 10.8l0 14.7c0 0.3 0 1.4 0.1 3.3 0.1 1.9 0.1 3 0.2 3.3 0.1 0.3 0.2 0.5 0.3 0.7 0.1 0.1 0.3 0.2 0.5 0.3 0.2 0 1 0.1 2.5 0.2l0.2 0.2 0 1-0.2 0.2c-2-0.1-3.8-0.2-5.6-0.2-1.8 0-3.7 0.1-5.6 0.2l-0.2-0.2 0-1 0.2-0.2c1.5-0.1 2.4-0.2 2.6-0.2 0.2 0 0.4-0.1 0.5-0.3 0.1-0.1 0.2-0.4 0.3-0.7 0.1-0.3 0.1-1.3 0.2-3 0.1-1.7 0.1-3 0.1-3.9l0-12.1-0.1-5c0-1.7-0.1-2.9-0.2-3.6-0.1-0.7-0.1-1.1-0.2-1.2-0.1-0.1-0.3-0.2-0.5-0.3-0.2-0.1-1.2-0.1-2.8-0.1l-0.2-0.2 0-1 0.2-0.2c3-0.3 5.5-0.9 7.5-1.7zM324.3 698.3l0.4 0.3c-0.1 1-0.2 2.4-0.2 4.1 1.3-1 2.4-2.1 3.6-3.1 0.3-0.3 0.6-0.5 0.9-0.7 0.3-0.1 0.8-0.3 1.4-0.4 0.7-0.2 1.4-0.2 2.1-0.2 1.2 0 2.3 0.2 3.5 0.7 1.1 0.5 2 1.1 2.5 1.7 0.6 0.7 1 1.4 1.2 2.4 0.2 0.9 0.3 2 0.3 3.4l0 4.1c0 0.3 0 2.2 0.1 5.8 0 1.5 0.2 2.4 0.5 2.6 0.3 0.3 1.3 0.4 2.9 0.4l0.2 0.2 0 1-0.2 0.2c-2-0.1-3.3-0.2-4-0.2-0.4 0-1.5 0.1-3.4 0.2l-0.3-0.3c0.2-2 0.3-4.7 0.3-7.9l0-3.1c0-1.8 0-3.2-0.1-4-0.1-0.8-0.3-1.6-0.8-2.2-0.4-0.7-1-1.2-1.8-1.5-0.7-0.4-1.6-0.6-2.6-0.6-0.8 0-1.5 0.1-2.1 0.2-0.6 0.2-1.2 0.5-1.9 1-0.7 0.5-1.3 1-1.6 1.4-0.3 0.4-0.6 0.9-0.6 1.2-0.1 0.4-0.1 1.2-0.1 2.4l0 4.1c0 0.3 0 1.4 0.1 3.3 0.1 1.9 0.1 3 0.2 3.3 0.1 0.3 0.2 0.5 0.3 0.7 0.1 0.1 0.3 0.2 0.5 0.3 0.2 0 1 0.1 2.5 0.2l0.2 0.2 0 1-0.2 0.2c-2-0.1-3.8-0.2-5.6-0.2-1.8 0-3.7 0.1-5.6 0.2l-0.2-0.2 0-1 0.2-0.2c1.5-0.1 2.4-0.2 2.6-0.2 0.2 0 0.4-0.1 0.5-0.3 0.1-0.1 0.2-0.4 0.3-0.7 0.1-0.3 0.1-1.3 0.2-3 0.1-1.7 0.1-3 0.1-3.9l0-4.6c0-0.6 0-1.5-0.1-2.6-0.1-1.1-0.1-1.7-0.2-2 0-0.2-0.2-0.4-0.4-0.6-0.2-0.1-0.6-0.2-1.2-0.2l-2 0-0.2-0.2 0-1 0.2-0.2c3-0.4 5.5-0.9 7.5-1.8zM365 717.1l-0.7 1.7c-1.6 1-3.1 1.7-4.3 2-1.3 0.3-2.4 0.5-3.4 0.5-1.9 0-3.7-0.4-5.3-1.1-1.7-0.7-3-2-4.1-3.7-1.1-1.7-1.6-3.9-1.6-6.3 0-1.6 0.2-3.1 0.6-4.4 0.4-1.3 0.8-2.3 1.3-2.9 0.4-0.6 1.2-1.4 2.3-2.1 1.1-0.8 2.2-1.4 3.4-1.9 1.2-0.5 2.5-0.7 3.8-0.7 1.9 0 3.5 0.4 5 1.3 1.4 0.9 2.4 2 3 3.4 0.6 1.4 0.9 2.8 0.9 4.4 0 0.5 0 1-0.1 1.4l-0.3 0.3c-1.1 0.2-2.5 0.4-4.3 0.5-1.8 0.1-3 0.1-3.6 0.1l-7.5 0c0 3.2 0.8 5.6 2.4 7.1 1.6 1.5 3.5 2.3 5.9 2.3 1.1 0 2.1-0.2 3.2-0.6 1-0.4 2.1-0.9 3.2-1.6zm-15-9.6c0.3 0 1.4 0.1 3.2 0.2 1.9 0.1 3.3 0.1 4.2 0.1 2.2 0 3.5 0 4-0.1 0-0.4 0-0.7 0-0.9 0-2.4-0.5-4.2-1.5-5.4-1-1.2-2.3-1.8-4-1.8-1.9 0-3.3 0.7-4.3 2-1 1.3-1.6 3.3-1.6 5.9zM412.2 698.3l0.4 0.3c-0.1 0.9-0.2 2.5-0.2 4.8l1.8-2.2c0.6-0.7 1.1-1.3 1.5-1.7 0.4-0.4 1-0.7 1.6-0.9 0.6-0.2 1.2-0.3 1.8-0.3 0.7 0 1.3 0.1 1.9 0.4l0.2 0.3c-0.3 2.1-0.4 3.9-0.4 5.5l-1.1 0c-0.6-1.4-1.6-2.2-3-2.2-1 0-1.8 0.3-2.5 0.9-0.7 0.6-1.2 1.4-1.4 2.3-0.2 0.9-0.4 2.1-0.4 3.5l0 2.6c0 0.5 0 1.6 0.1 3.4 0.1 1.8 0.1 2.9 0.2 3.2 0.1 0.3 0.2 0.5 0.3 0.6 0.1 0.1 0.3 0.2 0.6 0.3 0.2 0 1.4 0.1 3.3 0.2l0.2 0.2 0 1-0.2 0.2c-2.1-0.1-4.3-0.2-6.5-0.2-1.8 0-3.7 0.1-5.6 0.2l-0.2-0.2 0-1 0.2-0.2c1.5-0.1 2.4-0.2 2.6-0.2 0.2 0 0.4-0.1 0.5-0.3 0.1-0.1 0.2-0.4 0.3-0.7 0.1-0.3 0.1-1.3 0.2-3 0.1-1.7 0.1-3 0.1-3.9l0-4.6c0-0.6 0-1.5-0.1-2.6-0.1-1.1-0.1-1.7-0.2-2 0-0.2-0.2-0.4-0.4-0.6-0.2-0.1-0.6-0.2-1.2-0.2l-2 0-0.2-0.2 0-1 0.2-0.2c3-0.4 5.5-0.9 7.5-1.8zM423.8 709.9c0-1.9 0.4-3.7 1.1-5.4 0.8-1.7 2.1-3.2 4-4.5 1.9-1.3 4.2-1.9 6.8-1.9 3.3 0 6 1 8 3.1 2.1 2.1 3.1 4.7 3.1 8 0 3.6-1.2 6.5-3.6 8.8-2.4 2.3-5.2 3.5-8.6 3.5-2.2 0-4.1-0.6-5.9-1.8-1.7-1.2-3-2.6-3.8-4.3-0.8-1.7-1.2-3.6-1.2-5.6zm4.4-1.6c0 2.2 0.3 4.1 0.8 5.9 0.6 1.7 1.5 3.1 2.7 4.2 1.2 1 2.6 1.6 4.2 1.6 1.8 0 3.4-0.7 4.6-2.2 1.2-1.5 1.8-3.7 1.8-6.6 0-3.3-0.7-6.1-2-8.2-1.3-2.1-3.2-3.2-5.6-3.2-2 0-3.6 0.7-4.8 2.2-1.1 1.5-1.7 3.6-1.7 6.4zM449.7 720.8l-0.2-0.2-0.2-0.9c2-2.1 3.9-4.4 5.8-6.7l5.2-6.4c1.6-2 3.1-4 4.5-6.1l-5.5 0c-0.4 0-1.4 0-3 0.1-1.6 0.1-2.5 0.2-2.6 0.4-0.2 0.2-0.4 1.2-0.7 3.1l-0.1 0.8-0.2 0.2-0.9 0-0.2-0.2c0.2-2.5 0.2-3.9 0.2-4.3 0-0.4 0-0.9 0-1.6l0.2-0.2c5.8 0.1 10.4 0.2 13.9 0.2 1.8 0 3.3-0.1 4.4-0.2l0.2 0.2 0 1.1c-1.1 1.2-2.8 3.2-5 6.1l-6.1 7.8c-1.8 2.3-3.1 4-3.8 5l1.6 0 4.7-0.1c1.7 0 3.2-0.1 4.3-0.2 1.2-0.1 1.9-0.2 2.1-0.3 0.2-0.1 0.3-0.2 0.4-0.2 0-0.1 0.2-0.6 0.4-1.5 0.2-0.9 0.4-1.7 0.5-2.5l0.2-0.2 1.1 0 0.2 0.2c-0.4 2.8-0.6 4.9-0.6 6.4l-0.2 0.2c-4.7-0.1-8.2-0.2-10.7-0.2-2.1 0-5.3 0.1-9.6 0.2zM482.5 721l-3.2-10.5c-0.6-2-1.2-3.8-1.7-5.5-0.6-1.7-0.9-2.8-1.1-3.2-0.2-0.5-0.4-0.8-0.6-1-0.2-0.2-0.4-0.3-0.7-0.4-0.2-0.1-0.9-0.2-2-0.3l-0.2-0.2 0-1 0.2-0.2c1.1 0.1 2.9 0.2 5.2 0.2 2.5 0 4.5-0.1 5.7-0.2l0.2 0.2 0 1-0.2 0.2c-1.7 0-2.7 0.1-3 0.3-0.3 0.2-0.5 0.4-0.5 0.8 0 0.4 0.2 1.3 0.7 2.9l2.2 7.5c0.3 1.2 0.8 2.5 1.3 4.1 0.4-1 1-2.4 1.8-4.1l3.4-7.7c0.8-1.8 1.6-3.7 2.3-5.5l1.1 0 2.1 5.7 2.7 6.8 2.1 5.2 1.8-4.6c1-2.6 1.8-4.8 2.4-6.6 0.6-1.8 0.8-2.9 0.8-3.4 0-0.5-0.2-0.8-0.5-1-0.3-0.2-1.3-0.3-2.8-0.3l-0.2-0.2 0-1 0.2-0.2c1.8 0.1 3.3 0.2 4.6 0.2 1.6 0 3-0.1 4.4-0.2l0.2 0.2 0 1-0.2 0.2c-0.8 0-1.4 0.1-1.7 0.3-0.3 0.2-0.6 0.5-1 1.1-0.4 0.6-1 1.8-1.7 3.7l-2.3 5.5-1.1 2.6-1.7 4.4c-0.5 1.4-0.9 2.5-1.1 3.4l-2.2 0-1.1-2.9-5.3-13.4-2.3 4.9-2.6 5.8-2.3 5.7zM519.2 687.8c0.7 0 1.4 0.3 1.9 0.8 0.5 0.5 0.8 1.1 0.8 1.9 0 0.7-0.3 1.3-0.8 1.9-0.5 0.5-1.1 0.8-1.9 0.8-0.7 0-1.3-0.3-1.9-0.8-0.5-0.5-0.8-1.1-0.8-1.9 0-0.7 0.3-1.4 0.8-1.9 0.5-0.5 1.1-0.8 1.9-0.8zm2 10.5 0.4 0.3c-0.2 2-0.3 4.6-0.3 7.8l0 5.3c0 0.3 0 1.4 0.1 3.3 0.1 1.9 0.1 3 0.2 3.3 0.1 0.3 0.2 0.5 0.3 0.7 0.1 0.1 0.3 0.2 0.5 0.3 0.2 0 1 0.1 2.5 0.2l0.2 0.2 0 1-0.2 0.2c-2-0.1-3.8-0.2-5.6-0.2-1.8 0-3.7 0.1-5.6 0.2l-0.2-0.2 0-1 0.2-0.2c1.5-0.1 2.4-0.2 2.6-0.2 0.2 0 0.4-0.1 0.5-0.3 0.1-0.1 0.3-0.4 0.3-0.7 0.1-0.3 0.1-1.3 0.2-3 0.1-1.7 0.1-3 0.1-3.9l0-4.6c0-0.6 0-1.5-0.1-2.6-0.1-1.1-0.1-1.7-0.2-2 0-0.2-0.2-0.4-0.4-0.6-0.2-0.1-0.6-0.2-1.2-0.2l-2 0-0.2-0.2 0-1 0.2-0.2c3-0.4 5.5-0.9 7.5-1.8zM546.8 720.6c-1.1 1-1.9 1.9-2.4 2.5-0.5 0.6-0.7 1.3-0.7 1.9 0 0.7 0.2 1.2 0.7 1.7 0.5 0.5 1 0.7 1.7 0.7 1.2 0 2.6-0.7 4.2-2l0.4 0 0.6 0.9 0 0.3c-1.6 1.4-2.9 2.3-3.8 2.7-1 0.4-1.9 0.6-2.7 0.6-1.1 0-2-0.4-2.8-1.2-0.8-0.8-1.1-1.7-1.1-2.8 0-1 0.3-1.8 0.9-2.7 0.6-0.8 1.6-1.7 3-2.7-1 0-1.8 0.1-2.3 0.1l-0.4-0.3 0.1-3.8-3 2.3c-1 0.8-1.8 1.4-2.1 1.6-0.9 0.4-1.8 0.5-2.8 0.5-1.9 0-3.3-0.5-4.4-1.5-1.1-1-1.6-2.3-1.6-4 0-1.4 0.3-2.6 0.9-3.6 0.6-1.1 1.2-1.8 2-2.3 0.7-0.4 2.1-0.9 4.2-1.5 2.1-0.6 4.4-1 6.9-1.3 0-1-0.1-1.8-0.2-2.5-0.1-0.7-0.5-1.3-1-2-0.5-0.6-1.1-1.1-1.9-1.4-0.8-0.3-1.6-0.5-2.6-0.5-0.6 0-1.1 0.1-1.6 0.2-0.5 0.1-0.9 0.2-1.4 0.4-0.4 0.2-0.7 0.3-0.7 0.4-0.1 0.1-0.5 1-1.3 3l-0.2 0.1-0.9-0.2-0.2-0.2 0-2.9c1.8-1.1 3.2-1.9 4.4-2.4 1.1-0.5 2.4-0.7 3.7-0.7 2.4 0 4.3 0.6 5.7 1.9 1.4 1.3 2.1 3 2.1 5.2l-0.1 4.7 0 7c0 0.8 0.1 1.3 0.2 1.6 0.1 0.3 0.3 0.5 0.4 0.6 0.2 0.1 0.5 0.2 1 0.2l1.3 0.1 0.2 0.2 0 0.9-0.2 0.2c-0.9-0.1-1.7-0.1-2.2-0.1zm-4.6-12.2c-1.3 0.2-2.6 0.5-3.9 0.8-1.3 0.3-2.3 0.6-3 0.9-0.8 0.3-1.3 0.6-1.7 1-0.3 0.3-0.6 0.8-0.9 1.5-0.2 0.6-0.4 1.3-0.4 2.1 0 1.1 0.3 2 0.9 2.6 0.6 0.7 1.5 1 2.7 1 2.1 0 4.1-1.2 6.2-3.6zM551.7 720.8l-0.2-0.2-0.2-0.9c2-2.1 3.9-4.4 5.8-6.7l5.2-6.4c1.6-2 3.1-4 4.5-6.1l-5.5 0c-0.4 0-1.4 0-3 0.1-1.6 0.1-2.5 0.2-2.6 0.4-0.2 0.2-0.4 1.2-0.7 3.1l-0.1 0.8-0.2 0.2-0.9 0-0.2-0.2c0.2-2.5 0.2-3.9 0.2-4.3 0-0.4 0-0.9 0-1.6l0.2-0.2c5.8 0.1 10.4 0.2 13.9 0.2 1.8 0 3.3-0.1 4.4-0.2l0.2 0.2 0 1.1c-1.1 1.2-2.8 3.2-5 6.1l-6.1 7.8c-1.8 2.3-3.1 4-3.8 5l1.6 0 4.7-0.1c1.7 0 3.2-0.1 4.3-0.2 1.2-0.1 1.9-0.2 2.1-0.3 0.2-0.1 0.3-0.2 0.4-0.2 0-0.1 0.2-0.6 0.4-1.5 0.2-0.9 0.4-1.7 0.5-2.5l0.2-0.2 1.1 0 0.2 0.2c-0.4 2.8-0.6 4.9-0.6 6.4l-0.2 0.2c-4.7-0.1-8.2-0.2-10.7-0.2-2.1 0-5.3 0.1-9.6 0.2zM579.4 704.7l-0.9-0.2-0.2-0.2 0-2.9c2.8-2.1 5.5-3.1 8.1-3.1 1.8 0 3.3 0.3 4.5 1 1.2 0.7 2 1.5 2.6 2.5 0.5 1 0.8 2.2 0.8 3.5l-0.1 4.7 0 7c0 1 0.1 1.5 0.2 1.7 0.1 0.2 0.3 0.3 0.5 0.4 0.2 0.1 0.5 0.1 1 0.2l1.3 0.1 0.2 0.2 0 0.9-0.2 0.2c-1.1-0.1-2.2-0.1-3.2-0.1-0.9 0-2.1 0-3.4 0.1l-0.4-0.3 0.1-3.8-5.1 4c-0.9 0.4-1.8 0.5-2.8 0.5-1.3 0-2.3-0.2-3.2-0.7-0.9-0.5-1.6-1.1-2.1-1.9-0.5-0.8-0.7-1.8-0.7-3 0-2.3 0.7-4.1 2.2-5.4 1.4-1.3 5.4-2.4 11.8-3.3 0-2.3-0.5-3.9-1.5-4.9-1-0.9-2.4-1.4-4.1-1.4-0.9 0-1.7 0.1-2.5 0.4-0.7 0.3-1.2 0.5-1.3 0.6-0.1 0.2-0.5 1.1-1.3 2.9zm10.9 3.7c-4.4 0.7-7.1 1.5-8.2 2.4-1.1 0.8-1.6 2.1-1.6 3.9 0 2.4 1.2 3.7 3.6 3.7 2.1 0 4.1-1.2 6.2-3.6zM606.4 698.3l0.4 0.3c-0.1 1-0.2 2.4-0.2 4.1 1.2-1 2.4-2.1 3.6-3.1 0.3-0.3 0.6-0.5 0.9-0.7 0.3-0.1 0.8-0.3 1.4-0.4 0.7-0.2 1.4-0.2 2.1-0.2 1.2 0 2.3 0.2 3.5 0.7 1.1 0.5 2 1.1 2.5 1.7 0.6 0.7 1 1.4 1.2 2.4 0.2 0.9 0.3 2 0.3 3.4l0 4.1c0 0.3 0 2.2 0.1 5.8 0 1.5 0.2 2.4 0.5 2.6 0.3 0.3 1.3 0.4 2.9 0.4l0.2 0.2 0 1-0.2 0.2c-2-0.1-3.3-0.2-4-0.2-0.4 0-1.5 0.1-3.4 0.2l-0.3-0.3c0.2-2 0.3-4.7 0.3-7.9l0-3.1c0-1.8 0-3.2-0.1-4-0.1-0.8-0.3-1.6-0.8-2.2-0.4-0.7-1-1.2-1.8-1.5-0.7-0.4-1.6-0.6-2.6-0.6-0.8 0-1.5 0.1-2.1 0.2-0.6 0.2-1.2 0.5-1.9 1-0.7 0.5-1.3 1-1.6 1.4-0.3 0.4-0.6 0.9-0.6 1.2-0.1 0.4-0.1 1.2-0.1 2.4l0 4.1c0 0.3 0 1.4 0.1 3.3 0.1 1.9 0.1 3 0.2 3.3 0.1 0.3 0.2 0.5 0.3 0.7 0.1 0.1 0.3 0.2 0.5 0.3 0.2 0 1 0.1 2.5 0.2l0.2 0.2 0 1-0.2 0.2c-2-0.1-3.8-0.2-5.6-0.2-1.8 0-3.7 0.1-5.6 0.2l-0.2-0.2 0-1 0.2-0.2c1.5-0.1 2.4-0.2 2.6-0.2 0.2 0 0.4-0.1 0.5-0.3 0.1-0.1 0.3-0.4 0.3-0.7 0.1-0.3 0.1-1.3 0.2-3 0.1-1.7 0.1-3 0.1-3.9l0-4.6c0-0.6 0-1.5-0.1-2.6-0.1-1.1-0.1-1.7-0.2-2 0-0.2-0.2-0.4-0.4-0.6-0.2-0.1-0.6-0.2-1.2-0.2l-2 0-0.2-0.2 0-1 0.2-0.2c3-0.4 5.5-0.9 7.5-1.8zM633.1 687.8c0.7 0 1.4 0.3 1.9 0.8 0.5 0.5 0.8 1.1 0.8 1.9 0 0.7-0.3 1.3-0.8 1.9-0.5 0.5-1.1 0.8-1.9 0.8-0.7 0-1.3-0.3-1.9-0.8-0.5-0.5-0.8-1.1-0.8-1.9 0-0.7 0.3-1.4 0.8-1.9 0.5-0.5 1.1-0.8 1.9-0.8zm2 10.5 0.4 0.3c-0.2 2-0.3 4.6-0.3 7.8l0 5.3c0 0.3 0 1.4 0.1 3.3 0.1 1.9 0.1 3 0.2 3.3 0.1 0.3 0.2 0.5 0.3 0.7 0.1 0.1 0.3 0.2 0.5 0.3 0.2 0 1 0.1 2.5 0.2l0.2 0.2 0 1-0.2 0.2c-2-0.1-3.8-0.2-5.6-0.2-1.8 0-3.7 0.1-5.6 0.2l-0.2-0.2 0-1 0.2-0.2c1.5-0.1 2.4-0.2 2.6-0.2 0.2 0 0.4-0.1 0.5-0.3 0.1-0.1 0.2-0.4 0.3-0.7 0.1-0.3 0.1-1.3 0.2-3 0.1-1.7 0.1-3 0.1-3.9l0-4.6c0-0.6 0-1.5-0.1-2.6-0.1-1.1-0.1-1.7-0.2-2 0-0.2-0.2-0.4-0.4-0.6-0.2-0.1-0.6-0.2-1.2-0.2l-2 0-0.2-0.2 0-1 0.2-0.2c3-0.4 5.5-0.9 7.5-1.8zM645.3 704.7l-0.9-0.2-0.2-0.2 0-2.9c2.8-2.1 5.5-3.1 8.1-3.1 1.8 0 3.3 0.3 4.5 1 1.2 0.7 2 1.5 2.6 2.5 0.5 1 0.8 2.2 0.8 3.5l-0.1 4.7 0 7c0 1 0.1 1.5 0.2 1.7 0.1 0.2 0.3 0.3 0.5 0.4 0.2 0.1 0.5 0.1 1 0.2l1.3 0.1 0.2 0.2 0 0.9-0.2 0.2c-1.1-0.1-2.2-0.1-3.2-0.1-0.9 0-2.1 0-3.4 0.1l-0.4-0.3 0.1-3.8-5.1 4c-0.9 0.4-1.8 0.5-2.8 0.5-1.3 0-2.3-0.2-3.2-0.7-0.9-0.5-1.6-1.1-2.1-1.9-0.5-0.8-0.7-1.8-0.7-3 0-2.3 0.7-4.1 2.2-5.4 1.4-1.3 5.4-2.4 11.8-3.3 0-2.3-0.5-3.9-1.5-4.9-1-0.9-2.4-1.4-4.1-1.4-0.9 0-1.7 0.1-2.5 0.4-0.7 0.3-1.2 0.5-1.3 0.6-0.1 0.2-0.5 1.1-1.3 2.9zm10.9 3.7c-4.4 0.7-7.1 1.5-8.2 2.4-1.1 0.8-1.6 2.1-1.6 3.9 0 2.4 1.2 3.7 3.6 3.7 2.1 0 4.1-1.2 6.2-3.6z" class="s1"/></g></svg>